<svg width="326" height="35" viewBox="0 0 326 35" fill="none" xmlns="http://www.w3.org/2000/svg">
<path d="M153.299 27.0776C153.299 29.2843 152.43 31.0031 150.691 32.2342C148.952 33.4653 146.608 34.0808 143.659 34.0808C142.146 34.0808 140.748 33.9763 139.462 33.7672C138.177 33.5582 137.105 33.2678 136.249 32.8962V29.8998C137.156 30.2715 138.277 30.6083 139.613 30.9102C140.974 31.2122 142.373 31.3632 143.81 31.3632C145.826 31.3632 147.339 31.0031 148.347 30.2831C149.38 29.563 149.897 28.5874 149.897 27.3564C149.897 26.5434 149.708 25.8582 149.33 25.3007C148.952 24.7433 148.296 24.2323 147.364 23.7677C146.456 23.2799 145.184 22.7689 143.545 22.2347C141.252 21.4682 139.513 20.5274 138.328 19.4125C137.169 18.2976 136.589 16.7762 136.589 14.8483C136.589 13.5243 136.954 12.3978 137.685 11.4686C138.416 10.5163 139.424 9.78464 140.71 9.27363C142.02 8.76262 143.52 8.50712 145.209 8.50712C146.696 8.50712 148.057 8.63487 149.292 8.89037C150.527 9.14588 151.648 9.48268 152.657 9.90078L151.598 12.5836C150.666 12.2119 149.645 11.8984 148.536 11.6429C147.452 11.3873 146.318 11.2596 145.133 11.2596C143.444 11.2596 142.172 11.5964 141.315 12.27C140.458 12.9204 140.029 13.7914 140.029 14.8831C140.029 15.7193 140.218 16.4161 140.596 16.9736C140.974 17.5311 141.592 18.0305 142.449 18.4718C143.306 18.9131 144.465 19.3893 145.927 19.9003C147.515 20.4345 148.851 21.0152 149.935 21.6424C151.044 22.2463 151.875 22.978 152.43 23.8374C153.01 24.6968 153.299 25.7769 153.299 27.0776Z" fill="white"/>
<path d="M181.005 24.36C181.005 27.4493 180.148 29.8417 178.434 31.5374C176.746 33.233 174.452 34.0808 171.554 34.0808C169.764 34.0808 168.164 33.7091 166.752 32.9659C165.366 32.1993 164.269 31.096 163.463 29.6559C162.656 28.1926 162.253 26.4273 162.253 24.36C162.253 21.2707 163.097 18.8899 164.786 17.2175C166.475 15.5451 168.768 14.7089 171.667 14.7089C173.507 14.7089 175.12 15.0922 176.506 15.8587C177.918 16.602 179.014 17.6937 179.795 19.1338C180.602 20.5507 181.005 22.2927 181.005 24.36ZM165.694 24.36C165.694 26.5666 166.16 28.3203 167.092 29.6211C168.05 30.8986 169.562 31.5374 171.629 31.5374C173.671 31.5374 175.17 30.8986 176.128 29.6211C177.086 28.3203 177.565 26.5666 177.565 24.36C177.565 22.1534 177.086 20.4229 176.128 19.1686C175.17 17.9143 173.658 17.2872 171.591 17.2872C169.525 17.2872 168.025 17.9143 167.092 19.1686C166.16 20.4229 165.694 22.1534 165.694 24.36Z" fill="white"/>
<path d="M200.72 17.4265H195.616V33.7324H192.289V17.4265H188.736V15.998L192.289 14.9528V13.8727C192.289 11.457 192.869 9.72657 194.029 8.68132C195.188 7.61285 196.801 7.07861 198.868 7.07861C199.674 7.07861 200.405 7.1483 201.061 7.28766C201.741 7.4038 202.321 7.54317 202.8 7.70576L201.93 10.1098C201.527 9.99369 201.061 9.87755 200.531 9.76141C200.002 9.64527 199.46 9.5872 198.906 9.5872C197.797 9.5872 196.965 9.93562 196.41 10.6324C195.881 11.3061 195.616 12.3745 195.616 13.8379V15.0573H200.72V17.4265Z" fill="white"/>
<path d="M216.249 31.5722C216.754 31.5722 217.27 31.5374 217.8 31.4677C218.329 31.3748 218.757 31.2819 219.085 31.1889V33.5233C218.732 33.6859 218.228 33.8137 217.573 33.9066C216.917 34.0227 216.287 34.0808 215.682 34.0808C214.624 34.0808 213.641 33.9182 212.733 33.593C211.851 33.2446 211.133 32.6523 210.578 31.8161C210.024 30.9799 209.747 29.8069 209.747 28.2971V17.4265H206.873V15.9632L209.785 14.7437L211.108 10.7718H213.074V15.0573H218.934V17.4265H213.074V28.2274C213.074 29.3656 213.364 30.2134 213.943 30.7708C214.548 31.3051 215.317 31.5722 216.249 31.5722Z" fill="white"/>
<path d="M241.328 23.1754C241 22.2231 240.71 21.294 240.458 20.3881C240.231 19.459 240.055 18.7389 239.929 18.2279H239.778C239.677 18.7389 239.513 19.459 239.286 20.3881C239.059 21.294 238.77 22.2347 238.417 23.2102L234.787 33.6975H231.007L225.449 15.0225H228.889L231.687 24.9872C231.964 25.9859 232.229 26.9963 232.481 28.0184C232.733 29.0404 232.909 29.8882 233.01 30.5618H233.161C233.262 30.1669 233.376 29.6791 233.502 29.0985C233.653 28.5178 233.817 27.9138 233.993 27.2867C234.17 26.6363 234.346 26.0556 234.523 25.5446L238.114 15.0225H241.744L245.222 25.5446C245.499 26.3344 245.764 27.1938 246.016 28.1229C246.293 29.052 246.482 29.8534 246.583 30.527H246.734C246.81 29.9463 246.974 29.1449 247.226 28.1229C247.503 27.1009 247.793 26.0556 248.095 24.9872L250.931 15.0225H254.333L248.7 33.6975H244.806L241.328 23.1754Z" fill="white"/>
<path d="M270.746 14.7437C273.216 14.7437 275.044 15.2431 276.228 16.2419C277.413 17.2407 278.005 18.8318 278.005 21.0152V33.7324H275.586L274.943 31.0844H274.792C273.91 32.1064 272.977 32.8613 271.994 33.3491C271.036 33.8369 269.7 34.0808 267.987 34.0808C266.147 34.0808 264.622 33.6395 263.412 32.7568C262.202 31.8509 261.597 30.4457 261.597 28.541C261.597 26.6828 262.391 25.2543 263.979 24.2555C265.567 23.2335 268.012 22.676 271.314 22.5831L274.754 22.4786V21.3636C274.754 19.8074 274.389 18.7273 273.658 18.1234C272.927 17.5195 271.893 17.2175 270.557 17.2175C269.499 17.2175 268.491 17.3685 267.533 17.6704C266.575 17.9492 265.68 18.2744 264.849 18.646L263.828 16.3465C264.71 15.9051 265.756 15.5335 266.966 15.2315C268.176 14.9063 269.436 14.7437 270.746 14.7437ZM271.729 24.7084C269.209 24.8013 267.457 25.173 266.474 25.8234C265.517 26.4737 265.038 27.3912 265.038 28.5758C265.038 29.6211 265.378 30.3876 266.058 30.8754C266.764 31.3632 267.659 31.607 268.743 31.607C270.457 31.607 271.881 31.1773 273.015 30.3179C274.149 29.4353 274.716 28.0881 274.716 26.2763V24.6039L271.729 24.7084Z" fill="white"/>
<path d="M298.82 14.7089C299.198 14.7089 299.601 14.7321 300.03 14.7786C300.483 14.8018 300.874 14.8483 301.202 14.918L300.786 17.7401C300.458 17.6704 300.093 17.6124 299.689 17.5659C299.311 17.5195 298.946 17.4962 298.593 17.4962C297.56 17.4962 296.589 17.7633 295.682 18.2976C294.774 18.8086 294.044 19.5403 293.489 20.4926C292.96 21.4217 292.695 22.5134 292.695 23.7677V33.7324H289.368V15.0573H292.09L292.468 18.4718H292.619C293.275 17.4498 294.119 16.5671 295.153 15.8238C296.186 15.0806 297.408 14.7089 298.82 14.7089Z" fill="white"/>
<path d="M317.177 14.7089C318.916 14.7089 320.403 15.0573 321.638 15.7542C322.898 16.451 323.856 17.4382 324.512 18.7157C325.192 19.97 325.532 21.4449 325.532 23.1406V24.9872H311.657C311.708 27.1009 312.287 28.7152 313.396 29.8301C314.531 30.9218 316.106 31.4677 318.122 31.4677C319.408 31.4677 320.542 31.3632 321.525 31.1541C322.533 30.9218 323.566 30.5966 324.625 30.1785V32.8613C323.592 33.2794 322.571 33.5814 321.563 33.7672C320.554 33.9763 319.357 34.0808 317.971 34.0808C316.055 34.0808 314.354 33.7208 312.867 33.0007C311.405 32.2806 310.258 31.2122 309.427 29.7953C308.62 28.3552 308.217 26.6015 308.217 24.5342C308.217 22.4902 308.582 20.7365 309.313 19.2731C310.069 17.8098 311.115 16.6833 312.451 15.8935C313.812 15.1038 315.387 14.7089 317.177 14.7089ZM317.139 17.2175C315.551 17.2175 314.291 17.6937 313.359 18.646C312.451 19.5751 311.909 20.8759 311.733 22.5482H322.054C322.029 20.9688 321.626 19.6912 320.844 18.7157C320.063 17.7169 318.828 17.2175 317.139 17.2175Z" fill="white"/>
<path d="M100.791 33.9105L83.2381 0.252928L89.2718 0.252928C89.2718 0.252928 103.03 25.7804 103.99 29.7822L103.625 29.7822C104.722 25.8225 117.795 0.252929 117.795 0.252929L123.828 0.25293L106.961 33.9105L100.791 33.9105Z" fill="white"/>
<path d="M76.199 18.1136L50.8758 18.1136L50.8758 29.9927L79.2158 29.9927L79.2158 33.6996L45.1621 33.6996L45.1621 -1.37179e-06L77.9359 -5.15572e-08L77.9359 3.70696L50.8758 3.70696L50.8758 14.4908L76.199 14.4908L76.199 18.1136Z" fill="white"/>
<path d="M37.4819 16.5128C37.4819 7.3718 29.4827 -3.22232e-07 19.5637 -7.218e-07L3.8147e-06 -1.50989e-06L2.21627e-06 33.6996L18.8324 33.6996C29.1171 33.6996 37.4819 25.9909 37.4819 16.5128ZM5.94226 29.6978L5.94226 4.00183L17.6896 4.00183C25.3232 4.00183 31.5397 9.73077 31.5397 16.7656L31.5397 16.9341C31.5397 23.9689 25.3232 29.6978 17.6896 29.6978L5.94226 29.6978Z" fill="white"/>
<ellipse cx="168.352" cy="16.8095" rx="4.86088" ry="4.47962" fill="#FDCB37"/>
<path d="M115.958 34.2303L130.108 3.86841L130.108 34.2303L115.958 34.2303Z" fill="#FDCB37"/>
</svg>
