<svg width="24" height="44" viewBox="0 0 24 44" fill="none" xmlns="http://www.w3.org/2000/svg">
<path d="M15.1365 13.857C18.2966 14.6294 20.7451 16.5535 21.569 18.9505C22.407 21.4832 22.8611 24.3998 22.8611 27.499C22.8611 29.3061 22.6973 31.1132 22.3555 32.8875C21.8874 35.3126 20.9698 37.8968 19.2563 39.7741C17.4586 41.745 14.6637 42.8592 12.0186 42.8592C9.61697 42.8592 7.33705 41.8902 5.50188 40.3265C3.29218 38.4398 2.32309 36.0757 1.74258 33.2667C1.34933 31.3707 1.16675 29.4325 1.16675 27.499C1.16675 25.5562 1.33997 23.6133 1.74258 21.7126C2.0937 20.06 2.49163 18.2998 3.5918 16.9702C5.16012 15.0742 7.53836 14.0161 9.96341 13.6416" stroke="#FFC20A" stroke-width="2" stroke-miterlimit="10"/>
<path d="M11.9955 21.6237C11.9206 16.7689 11.8364 11.0247 15.7408 7.78033C17.8803 6.00133 22.6835 4.58282 22.309 1.0061" stroke="#FFC20A" stroke-width="2" stroke-miterlimit="10"/>
<path d="M1.74683 21.7126H22.2802" stroke="#FFC20A" stroke-width="2" stroke-miterlimit="10"/>
</svg>
