<svg width="34" height="34" viewBox="0 0 34 34" fill="none" xmlns="http://www.w3.org/2000/svg">
<path d="M2.80086 6.78651C2.67037 6.94963 2.53987 7.08013 2.40937 7.24325C1.33276 8.18936 0.517148 10.2447 1.00652 12.822C3.12711 23.8818 12.4251 32.2989 23.6479 33.3102C23.8763 33.3429 24.1373 33.3429 24.3657 33.3429C25.638 33.3429 26.8777 33.0166 27.8239 32.4294C28.2806 32.1684 28.7047 31.8095 29.0636 31.418L30.0423 30.3414C31.9345 28.2534 31.7714 25.0562 29.6835 23.164L28.0522 21.6959C27.1061 20.8477 25.899 20.3909 24.6593 20.3909C23.2238 20.3909 21.8536 21.0108 20.9075 22.0548L19.9614 23.1314C19.5699 23.5555 19.2762 24.0122 19.0805 24.5342C15.2308 22.9356 12.0988 20.0321 10.1414 16.3455C10.8591 16.0519 11.479 15.6277 12.001 15.0405L12.9471 13.9639C13.8606 12.9525 14.3173 11.6476 14.2521 10.31C14.1868 8.97235 13.5996 7.7 12.5882 6.78651L10.957 5.31841C10.0109 4.47017 8.80377 4.01343 7.56404 4.01343C6.12856 4.01343 4.75833 4.63329 3.81222 5.67728L2.80086 6.78651ZM4.72571 6.62339C5.44345 5.8404 6.45481 5.38366 7.53142 5.38366C8.47753 5.38366 9.35839 5.74253 10.0761 6.36239L11.7074 7.83049C12.4577 8.51561 12.8818 9.4291 12.9471 10.4405C13.0123 11.4518 12.6535 12.3979 11.9683 13.1483L10.9896 14.1923C10.5329 14.7143 9.94563 15.0731 9.29314 15.2689L8.99952 15.3668C8.80377 15.432 8.67327 15.5625 8.5754 15.7256C8.51015 15.8887 8.51015 16.1171 8.5754 16.2802L8.7059 16.5412C10.8265 20.815 14.4478 24.1427 18.8847 25.9045L19.1457 26.0023C19.3089 26.0676 19.5046 26.0676 19.6677 26.0023C19.8309 25.9371 19.9614 25.774 20.0266 25.6108L20.1245 25.3499C20.2876 24.8605 20.5486 24.4037 20.9075 24.0122L21.8536 22.9356C22.5713 22.1526 23.5827 21.6959 24.6593 21.6959C25.6054 21.6959 26.4863 22.0548 27.1714 22.6746L28.8026 24.1427C30.3359 25.5456 30.4664 27.9272 29.0636 29.4605L28.0849 30.5371C27.8239 30.8308 27.4976 31.0918 27.1387 31.2875C26.2253 31.8421 25.0181 32.1031 23.7458 31.9726C13.1428 31.0591 4.30159 23.0661 2.3115 12.5937C1.88738 10.4078 2.67037 8.77661 3.32286 8.22199C3.35548 8.18936 3.35548 8.18936 3.3881 8.15674L3.42073 8.09149C3.45335 8.05887 3.45335 8.05887 3.48598 8.02624C3.58385 7.89574 3.68173 7.76525 3.7796 7.63475L4.72571 6.62339Z" fill="#FFC20A"/>
<path d="M33.4027 16.0191C33.4027 7.47148 26.4537 0.522461 17.9061 0.522461C17.1557 0.522461 16.5358 1.14233 16.5358 1.89269C16.5358 2.64305 17.1557 3.26292 17.9061 3.26292C24.9529 3.26292 30.6949 9.00483 30.6949 16.0517C30.6949 16.8021 31.3147 17.422 32.0651 17.422C32.8154 17.3893 33.4027 16.7695 33.4027 16.0191ZM32.0651 16.7368C31.6736 16.7368 31.3473 16.4106 31.3473 16.0191C31.3473 8.61334 25.3118 2.5778 17.9061 2.5778C17.5146 2.5778 17.1883 2.25156 17.1883 1.86007C17.2209 1.5012 17.5146 1.17495 17.9061 1.17495C26.0948 1.17495 32.7502 7.83035 32.7502 16.0191C32.7502 16.4106 32.4566 16.7368 32.0651 16.7368Z" fill="#FFC20A"/>
<path d="M17.7431 5.57928C16.9927 5.57928 16.3729 6.19915 16.3729 6.94952C16.3729 7.69988 16.9927 8.31974 17.7431 8.31974C22.1148 8.31974 25.6382 11.8758 25.6382 16.2149C25.6382 16.9652 26.2581 17.5851 27.0084 17.5851C27.7588 17.5851 28.3787 16.9652 28.3787 16.2149C28.3787 10.3425 23.6155 5.57928 17.7431 5.57928ZM27.0084 16.9C26.6169 16.9 26.2907 16.5738 26.2907 16.1823C26.2907 11.4517 22.441 7.63463 17.7431 7.63463C17.3516 7.63463 17.0254 7.30838 17.0254 6.91689C17.0254 6.5254 17.3516 6.19915 17.7431 6.19915C23.224 6.19915 27.6935 10.6687 27.6935 16.1496C27.7262 16.5738 27.3999 16.9 27.0084 16.9Z" fill="#FFC20A"/>
</svg>
